<svg width="740" height="390" viewBox="0 0 740 390" fill="none" xmlns="http://www.w3.org/2000/svg">
<g filter="url(#filter0_d_3_2)">
<path d="M16 25C16 16.7157 22.7157 10 31 10H676C698.091 10 716 27.9086 716 50V345C716 353.284 709.284 360 701 360H56C33.9086 360 16 342.091 16 320V25Z" fill="url(#paint0_linear_3_2)"/>
<path d="M31 9C22.1634 9 15 16.1635 15 25V320C15 342.644 33.3563 361 56 361H701C709.837 361 717 353.837 717 345V50C717 27.3563 698.644 9 676 9H31Z" stroke="#F8F9FA" stroke-width="2"/>
</g>
<path d="M98.6622 171.896H44.3378C40.8571 171.896 38 169.039 38 165.558V125.338C38 121.857 40.8571 119 44.3378 119H98.6622C102.143 119 105 121.857 105 125.338V165.558C105 169.039 102.143 171.896 98.6622 171.896Z" fill="#8C8D8D"/>
<path d="M63.7739 164.834C63.4922 164.834 63.2106 164.673 63.0898 164.411C62.8886 164.029 63.0496 163.566 63.4319 163.365C64.5586 162.781 66.0877 161.715 66.973 159.844C68.0997 157.47 67.7979 154.894 67.3352 154.673C67.2145 154.612 66.7517 154.854 66.47 154.995C65.7457 155.377 64.7196 155.88 63.5526 155.478C62.4058 155.075 61.8424 154.049 61.5808 153.566C59.8304 150.347 59.2871 141.977 61.1382 137.812C61.7619 136.424 62.5868 135.619 63.6331 135.378C64.6995 135.136 65.5646 135.579 66.2487 135.941C66.8121 136.243 67.1139 136.364 67.2748 136.263C67.9991 135.82 67.979 133.164 66.973 131.052C66.0877 129.181 64.5586 128.114 63.4319 127.531C63.0496 127.33 62.9088 126.867 63.0898 126.485C63.291 126.102 63.7538 125.961 64.1361 126.143C65.464 126.827 67.2949 128.114 68.3613 130.388C69.4277 132.621 69.9307 136.464 68.0595 137.591C67.1139 138.154 66.2286 137.691 65.5042 137.329C64.961 137.048 64.458 136.786 63.955 136.907C63.2709 137.068 62.8082 137.852 62.5265 138.476C60.8967 142.098 61.3595 150.025 62.9088 152.862C63.1703 153.345 63.4922 153.868 64.0355 154.049C64.5586 154.23 65.0415 154.009 65.7457 153.647C66.4298 153.305 67.1943 152.902 67.9992 153.305C69.7295 154.15 69.6289 157.892 68.3613 160.548C67.2949 162.801 65.464 164.109 64.1361 164.793C64.0154 164.813 63.8946 164.834 63.7739 164.834Z" fill="#101010"/>
<path d="M61.4601 139.221H47.4967C47.0742 139.221 46.712 138.879 46.712 138.436C46.712 137.993 47.0541 137.651 47.4967 137.651H61.4601C61.8826 137.651 62.2448 137.993 62.2448 138.436C62.2448 138.879 61.8826 139.221 61.4601 139.221Z" fill="#101010"/>
<path d="M61.4601 153.204H47.4967C47.0742 153.204 46.712 152.862 46.712 152.419C46.712 151.977 47.0541 151.635 47.4967 151.635H61.4601C61.8826 151.635 62.2448 151.977 62.2448 152.419C62.2448 152.862 61.8826 153.204 61.4601 153.204Z" fill="#101010"/>
<path d="M80.0712 164.833C79.9505 164.833 79.8298 164.813 79.709 164.753C78.3811 164.069 76.5502 162.781 75.4838 160.508C74.2163 157.852 74.1157 154.109 75.846 153.264C76.6508 152.882 77.4154 153.264 78.0994 153.606C78.8036 153.969 79.2865 154.19 79.8096 154.009C80.3931 153.808 80.7352 153.184 80.9364 152.822C82.4856 149.985 82.9484 142.078 81.3186 138.436C81.037 137.812 80.5541 137.027 79.8901 136.866C79.4676 136.766 79.206 136.343 79.3066 135.941C79.4072 135.518 79.8298 135.277 80.2322 135.357C81.2784 135.599 82.1033 136.424 82.7271 137.812C84.5781 141.977 84.055 150.347 82.2844 153.566C82.0229 154.049 81.4595 155.075 80.3126 155.478C79.1457 155.88 78.1196 155.377 77.3952 154.995C77.1136 154.854 76.6307 154.612 76.5301 154.673C76.0673 154.894 75.7655 157.469 76.8922 159.844C77.7775 161.715 79.3066 162.781 80.4334 163.365C80.8157 163.566 80.9565 164.029 80.7754 164.411C80.6346 164.672 80.3529 164.833 80.0712 164.833Z" fill="#101010"/>
<path d="M76.9727 136.122C76.6507 136.122 76.3489 135.921 76.2282 135.599C74.5582 130.609 78.4615 126.766 79.709 126.122C80.0913 125.921 80.554 126.082 80.7552 126.464C80.9564 126.847 80.7955 127.309 80.4132 127.511C79.8498 127.792 76.2685 130.871 77.697 135.116C77.8378 135.518 77.6165 135.961 77.2141 136.102C77.1336 136.102 77.0531 136.122 76.9727 136.122Z" fill="#101010"/>
<path d="M96.3685 139.221H82.4051C81.9826 139.221 81.6204 138.879 81.6204 138.436C81.6204 137.993 81.9625 137.651 82.4051 137.651H96.3685C96.791 137.651 97.1532 137.993 97.1532 138.436C97.1532 138.879 96.8111 139.221 96.3685 139.221Z" fill="#101010"/>
<path d="M96.3685 153.204H82.4051C81.9826 153.204 81.6204 152.862 81.6204 152.419C81.6204 151.977 81.9625 151.635 82.4051 151.635H96.3685C96.791 151.635 97.1532 151.977 97.1532 152.419C97.1532 152.862 96.8111 153.204 96.3685 153.204Z" fill="#101010"/>
<g filter="url(#filter1_d_3_2)">
<path d="M55.536 48.256C52.5067 48.256 49.968 49.7067 47.92 52.608C45.9147 55.5093 44.912 59.52 44.912 64.64C44.912 69.76 45.8293 73.5573 47.664 76.032C49.5413 78.5067 51.9947 79.744 55.024 79.744C58.8213 79.744 62.192 79.104 65.136 77.824L65.328 78.272C62.2987 79.5947 58.7573 80.256 54.704 80.256C50.6507 80.256 47.28 78.976 44.592 76.416C41.904 73.856 40.56 69.9093 40.56 64.576C40.56 59.2427 41.968 55.104 44.784 52.16C47.6 49.216 51.184 47.744 55.536 47.744C57.968 47.744 60.208 48.2987 62.256 49.408C64.3467 50.5173 65.8827 52.2027 66.864 54.464H62.768C62.128 52.3733 61.1467 50.816 59.824 49.792C58.544 48.768 57.1147 48.256 55.536 48.256ZM97.1795 80C94.2782 80 92.2942 79.4453 91.2275 78.336C90.2462 77.3973 89.7555 76.5867 89.7555 75.904V74.56C87.6648 78.3573 84.3155 80.256 79.7075 80.256C74.3315 80.256 71.2808 77.824 70.5555 72.96C70.4702 72.448 70.4275 71.936 70.4275 71.424C70.4275 70.8693 70.5128 70.272 70.6835 69.632C70.8542 68.992 71.3448 68.288 72.1555 67.52C73.7768 65.984 77.3395 65.0453 82.8435 64.704C84.2088 64.576 85.4675 64.512 86.6195 64.512C87.7715 64.512 88.8168 64.5547 89.7555 64.64V54.016C89.6702 53.9733 89.6702 53.7813 89.7555 53.44C89.8408 53.056 89.7555 52.5867 89.4995 52.032C89.2862 51.4347 88.9875 50.8587 88.6035 50.304C88.2195 49.7493 87.5368 49.28 86.5555 48.896C85.5742 48.4693 84.2942 48.256 82.7155 48.256C81.1368 48.256 79.2808 48.5547 77.1475 49.152C75.0568 49.7067 73.5208 50.2613 72.5395 50.816L72.2835 50.368C76.0808 48.6187 79.9422 47.744 83.8675 47.744C88.2622 47.744 91.1635 48.5333 92.5715 50.112C93.6808 51.3493 94.2355 52.6507 94.2355 54.016V75.456C94.2355 76.6933 94.4702 77.6533 94.9395 78.336C95.4515 78.976 95.9635 79.3173 96.4755 79.36L97.1795 79.488H99.1635V80H97.1795ZM80.7315 79.744C82.9928 79.744 85.0195 78.976 86.8115 77.44C88.6462 75.8613 89.6275 74.3467 89.7555 72.896V65.152C88.6035 65.0667 87.4302 65.024 86.2355 65.024C85.0835 65.024 83.9315 65.088 82.7795 65.216C79.5368 65.6 77.4248 66.3253 76.4435 67.392C75.4622 68.4587 74.9715 69.9307 74.9715 71.808C74.9715 72.1493 74.9928 72.5333 75.0355 72.96C75.4195 77.4827 77.3182 79.744 80.7315 79.744ZM114.909 50.752V49.408C112.989 50.176 111.24 51.7333 109.661 54.08C108.082 56.384 107.25 58.56 107.165 60.608V80H102.685V48H107.165V58.176C107.848 55.7013 109.149 53.376 111.069 51.2C112.989 48.9813 115.165 47.8293 117.597 47.744H117.853C118.706 47.744 119.41 48.0427 119.965 48.64C120.562 49.1947 120.861 49.8987 120.861 50.752C120.861 51.6053 120.562 52.3093 119.965 52.864C119.41 53.4187 118.706 53.696 117.853 53.696C117 53.696 116.296 53.4187 115.741 52.864C115.186 52.3093 114.909 51.6053 114.909 50.752ZM123.748 65.152C123.748 59.6053 125.092 55.3173 127.78 52.288C130.468 49.2587 134.5 47.744 139.876 47.744C142.393 47.744 144.932 48.384 147.492 49.664V32.064H151.972V75.456C151.972 76.6933 152.206 77.6533 152.676 78.336C153.188 78.976 153.7 79.3173 154.212 79.36L154.916 79.488H156.9V80H152.996C151.246 80 149.902 79.616 148.964 78.848C148.068 78.08 147.598 77.312 147.556 76.544L147.492 75.456V74.432C146.681 75.9253 145.337 77.248 143.46 78.4C141.582 79.552 139.364 80.128 136.804 80.128C128.1 79.9147 123.748 74.9227 123.748 65.152ZM136.868 79.616C139.726 79.616 142.18 78.848 144.228 77.312C146.276 75.776 147.364 74.2613 147.492 72.768V50.24C144.462 48.9173 141.86 48.256 139.684 48.256C135.886 48.256 133.028 49.7493 131.108 52.736C129.188 55.68 128.228 59.8187 128.228 65.152C128.228 74.7947 131.108 79.616 136.868 79.616ZM173.978 80.256C169.498 80.256 165.85 78.976 163.034 76.416C160.218 73.856 158.81 69.9093 158.81 64.576C158.81 59.2427 160.261 55.104 163.162 52.16C166.106 49.216 169.818 47.744 174.298 47.744C178.821 47.744 182.49 49.024 185.306 51.584C188.122 54.144 189.53 58.0907 189.53 63.424C189.53 68.7573 188.058 72.896 185.114 75.84C182.213 78.784 178.501 80.256 173.978 80.256ZM174.426 48.256C171.183 48.256 168.495 49.7067 166.362 52.608C164.229 55.4667 163.162 59.4773 163.162 64.64C163.162 69.76 164.143 73.5573 166.106 76.032C168.069 78.5067 170.671 79.744 173.914 79.744C177.157 79.744 179.845 78.3147 181.978 75.456C184.111 72.5547 185.178 68.544 185.178 63.424C185.178 58.2613 184.197 54.4427 182.234 51.968C180.271 49.4933 177.669 48.256 174.426 48.256ZM219.933 80C218.183 80 216.839 79.616 215.901 78.848C215.005 78.08 214.535 77.312 214.493 76.544L214.429 75.456V55.36C214.429 51.9893 213.554 49.8347 211.805 48.896C210.909 48.4693 209.799 48.256 208.477 48.256C205.746 48.256 203.293 49.344 201.117 51.52C198.941 53.6533 197.853 55.5733 197.853 57.28V80H193.373V48H197.853V55.296C198.578 53.4613 199.922 51.7547 201.885 50.176C203.847 48.5547 206.002 47.744 208.349 47.744C210.695 47.744 212.594 47.9787 214.045 48.448C215.538 48.8747 216.626 49.4933 217.309 50.304C218.375 51.6267 218.909 53.3333 218.909 55.424V75.456C218.909 76.6933 219.143 77.6533 219.613 78.336C220.125 78.976 220.637 79.3173 221.149 79.36L221.853 79.488H223.837V80H219.933Z" fill="white"/>
<path d="M47.92 52.608L47.103 52.0313L47.0974 52.0394L47.92 52.608ZM47.664 76.032L46.8606 76.6276L46.8673 76.6364L47.664 76.032ZM65.136 77.824L66.0551 77.4301L65.6592 76.5061L64.7373 76.9069L65.136 77.824ZM65.328 78.272L65.7281 79.1885L66.6384 78.791L66.2471 77.8781L65.328 78.272ZM44.592 76.416L45.2817 75.6919L44.592 76.416ZM44.784 52.16L44.0614 51.4688L44.784 52.16ZM62.256 49.408L61.7797 50.2873L61.7873 50.2913L62.256 49.408ZM66.864 54.464V55.464H68.3881L67.7813 54.0659L66.864 54.464ZM62.768 54.464L61.8118 54.7567L62.0283 55.464H62.768V54.464ZM59.824 49.792L59.1993 50.5729L59.2055 50.5778L59.2118 50.5827L59.824 49.792ZM55.536 47.256C52.1225 47.256 49.3014 48.9169 47.103 52.0313L48.737 53.1847C50.6346 50.4964 52.8908 49.256 55.536 49.256V47.256ZM47.0974 52.0394C44.9352 55.1677 43.912 59.4044 43.912 64.64H45.912C45.912 59.6356 46.8942 55.8509 48.7426 53.1766L47.0974 52.0394ZM43.912 64.64C43.912 69.8453 44.8383 73.8997 46.8607 76.6276L48.4673 75.4364C46.8203 73.2149 45.912 69.6747 45.912 64.64H43.912ZM46.8673 76.6364C48.9281 79.3529 51.6726 80.744 55.024 80.744V78.744C52.3167 78.744 50.1546 77.6605 48.4607 75.4276L46.8673 76.6364ZM55.024 80.744C58.9338 80.744 62.4441 80.0848 65.5347 78.7411L64.7373 76.9069C61.9399 78.1232 58.7089 78.744 55.024 78.744V80.744ZM64.2169 78.2179L64.4089 78.6659L66.2471 77.8781L66.0551 77.4301L64.2169 78.2179ZM64.9279 77.3555C62.0499 78.6121 58.65 79.256 54.704 79.256V81.256C58.8647 81.256 62.5475 80.5772 65.7281 79.1885L64.9279 77.3555ZM54.704 79.256C50.8816 79.256 47.7658 78.0577 45.2817 75.6919L43.9023 77.1401C46.7942 79.8943 50.4197 81.256 54.704 81.256V79.256ZM45.2817 75.6919C42.8651 73.3904 41.56 69.7567 41.56 64.576H39.56C39.56 70.062 40.9429 74.3216 43.9023 77.1401L45.2817 75.6919ZM41.56 64.576C41.56 59.418 42.9184 55.5572 45.5066 52.8512L44.0614 51.4688C41.0176 54.6508 39.56 59.0674 39.56 64.576H41.56ZM45.5066 52.8512C48.1201 50.119 51.4361 48.744 55.536 48.744V46.744C50.9319 46.744 47.0799 48.313 44.0614 51.4688L45.5066 52.8512ZM55.536 48.744C57.8093 48.744 59.8845 49.2607 61.7797 50.2873L62.7323 48.5287C60.5315 47.3366 58.1267 46.744 55.536 46.744V48.744ZM61.7873 50.2913C63.6689 51.2898 65.0515 52.7994 65.9467 54.8621L67.7813 54.0659C66.7138 51.606 65.0244 49.7449 62.7247 48.5247L61.7873 50.2913ZM66.864 53.464H62.768V55.464H66.864V53.464ZM63.7242 54.1713C63.0422 51.9433 61.9658 50.1855 60.4362 49.0013L59.2118 50.5827C60.3275 51.4465 61.2138 52.8034 61.8118 54.7567L63.7242 54.1713ZM60.4487 49.0111C58.9987 47.8512 57.351 47.256 55.536 47.256V49.256C56.8784 49.256 58.0893 49.6848 59.1993 50.5729L60.4487 49.0111ZM91.2275 78.336L91.9483 77.6429L91.9338 77.6278L91.9187 77.6134L91.2275 78.336ZM89.7555 74.56H90.7555L88.8795 74.0777L89.7555 74.56ZM70.5555 72.96L71.5446 72.8125L71.5433 72.804L71.5419 72.7956L70.5555 72.96ZM72.1555 67.52L71.4678 66.794L72.1555 67.52ZM82.8435 64.704L82.9054 65.7021L82.9211 65.7011L82.9368 65.6996L82.8435 64.704ZM89.7555 64.64L89.665 65.6359L90.7555 65.735V64.64H89.7555ZM89.7555 54.016H90.7555V53.398L90.2027 53.1216L89.7555 54.016ZM89.7555 53.44L90.7256 53.6825L90.7288 53.6698L90.7317 53.6569L89.7555 53.44ZM89.4995 52.032L88.5578 52.3683L88.5728 52.4105L88.5915 52.4511L89.4995 52.032ZM88.6035 50.304L87.7813 50.8732L88.6035 50.304ZM86.5555 48.896L86.1568 49.8131L86.1738 49.8205L86.1911 49.8272L86.5555 48.896ZM77.1475 49.152L77.404 50.1187L77.4171 50.115L77.1475 49.152ZM72.5395 50.816L71.6713 51.3121L72.1651 52.1763L73.0316 51.6866L72.5395 50.816ZM72.2835 50.368L71.8651 49.4597L70.8737 49.9164L71.4153 50.8641L72.2835 50.368ZM92.5715 50.112L91.8252 50.7776L91.8269 50.7795L92.5715 50.112ZM94.9395 78.336L94.1155 78.9025L94.136 78.9324L94.1586 78.9607L94.9395 78.336ZM96.4755 79.36L96.6544 78.3761L96.6068 78.3675L96.5585 78.3635L96.4755 79.36ZM97.1795 79.488L97.0006 80.4719L97.0893 80.488H97.1795V79.488ZM99.1635 79.488H100.164V78.488H99.1635V79.488ZM99.1635 80V81H100.164V80H99.1635ZM86.8115 77.44L87.4623 78.1993L87.4637 78.198L86.8115 77.44ZM89.7555 72.896L90.7516 72.9839L90.7555 72.94V72.896H89.7555ZM89.7555 65.152H90.7555V64.2233L89.8294 64.1547L89.7555 65.152ZM82.7795 65.216L82.6691 64.2221L82.6619 64.2229L82.7795 65.216ZM75.0355 72.96L76.0319 72.8754L76.0313 72.8679L76.0305 72.8605L75.0355 72.96ZM97.1795 79C94.3338 79 92.7162 78.4415 91.9483 77.6429L90.5067 79.0291C91.8721 80.4492 94.2225 81 97.1795 81V79ZM91.9187 77.6134C90.9638 76.6999 90.7555 76.1442 90.7555 75.904H88.7555C88.7555 77.0292 89.5286 78.0948 90.5363 79.0586L91.9187 77.6134ZM90.7555 75.904V74.56H88.7555V75.904H90.7555ZM88.8795 74.0777C87.9119 75.8352 86.6764 77.1151 85.1824 77.9621C83.6851 78.8108 81.8727 79.256 79.7075 79.256V81.256C82.1503 81.256 84.3165 80.7519 86.1687 79.7019C88.024 78.6502 89.5084 77.0822 90.6315 75.0423L88.8795 74.0777ZM79.7075 79.256C77.1613 79.256 75.3026 78.6799 74.0109 77.6501C72.7311 76.6298 71.8801 75.0623 71.5446 72.8125L69.5664 73.1075C69.9563 75.7217 70.9932 77.8022 72.7641 79.2139C74.523 80.6161 76.8777 81.256 79.7075 81.256V79.256ZM71.5419 72.7956C71.4655 72.3372 71.4275 71.8802 71.4275 71.424H69.4275C69.4275 71.9918 69.4748 72.5588 69.5691 73.1244L71.5419 72.7956ZM71.4275 71.424C71.4275 70.9712 71.4973 70.4613 71.6497 69.8897L69.7173 69.3743C69.5284 70.0827 69.4275 70.7674 69.4275 71.424H71.4275ZM71.6497 69.8897C71.7502 69.5128 72.0852 68.9641 72.8432 68.246L71.4678 66.794C70.6045 67.6119 69.9581 68.4712 69.7173 69.3743L71.6497 69.8897ZM72.8432 68.246C73.4772 67.6453 74.5857 67.0822 76.2983 66.631C77.9937 66.1843 80.1898 65.8705 82.9054 65.7021L82.7816 63.7059C79.9932 63.8788 77.656 64.205 75.7887 64.697C73.9386 65.1845 72.4551 65.8587 71.4678 66.794L72.8432 68.246ZM82.9368 65.6996C84.2768 65.574 85.5039 65.512 86.6195 65.512V63.512C85.4311 63.512 84.1409 63.578 82.7502 63.7084L82.9368 65.6996ZM86.6195 65.512C87.7476 65.512 88.7621 65.5538 89.665 65.6359L89.846 63.6441C88.8715 63.5555 87.7954 63.512 86.6195 63.512V65.512ZM90.7555 64.64V54.016H88.7555V64.64H90.7555ZM90.2027 53.1216C90.474 53.2572 90.5984 53.4797 90.6473 53.6143C90.6919 53.7369 90.6915 53.8273 90.6915 53.84C90.6915 53.8672 90.6893 53.8279 90.7256 53.6825L88.7854 53.1975C88.7364 53.3934 88.6915 53.6208 88.6915 53.84C88.6915 53.9487 88.7018 54.1164 88.7677 54.2977C88.838 54.491 88.9944 54.7535 89.3083 54.9104L90.2027 53.1216ZM90.7317 53.6569C90.8844 52.9698 90.7076 52.2632 90.4075 51.6129L88.5915 52.4511C88.8034 52.9102 88.7973 53.1422 88.7793 53.2231L90.7317 53.6569ZM90.4412 51.6957C90.1966 51.0107 89.8564 50.3569 89.4257 49.7348L87.7813 50.8732C88.1186 51.3604 88.3757 51.8586 88.5578 52.3683L90.4412 51.6957ZM89.4257 49.7348C88.8813 48.9485 87.9902 48.3836 86.9199 47.9648L86.1911 49.8272C87.0834 50.1764 87.5577 50.5502 87.7813 50.8732L89.4257 49.7348ZM86.9542 47.9789C85.802 47.478 84.3718 47.256 82.7155 47.256V49.256C84.2165 49.256 85.3463 49.4607 86.1568 49.8131L86.9542 47.9789ZM82.7155 47.256C81.0173 47.256 79.0666 47.5762 76.8779 48.189L77.4171 50.115C79.4951 49.5331 81.2564 49.256 82.7155 49.256V47.256ZM76.8911 48.1854C74.7788 48.7458 73.1427 49.3264 72.0474 49.9454L73.0316 51.6866C73.899 51.1963 75.3349 50.6675 77.4039 50.1186L76.8911 48.1854ZM73.4077 50.3199L73.1517 49.8719L71.4153 50.8641L71.6713 51.3121L73.4077 50.3199ZM72.7019 51.2763C76.3767 49.5834 80.0959 48.744 83.8675 48.744V46.744C79.7884 46.744 75.7849 47.654 71.8651 49.4597L72.7019 51.2763ZM83.8675 48.744C86.013 48.744 87.7413 48.9376 89.077 49.3009C90.416 49.6652 91.2937 50.1817 91.8252 50.7776L93.3178 49.4464C92.4413 48.4637 91.1643 47.7961 89.602 47.3711C88.0363 46.9451 86.1167 46.744 83.8675 46.744V48.744ZM91.8269 50.7795C92.8092 51.8752 93.2355 52.9479 93.2355 54.016H95.2355C95.2355 52.3534 94.5524 50.8235 93.3161 49.4445L91.8269 50.7795ZM93.2355 54.016V75.456H95.2355V54.016H93.2355ZM93.2355 75.456C93.2355 76.8015 93.4878 77.9895 94.1155 78.9025L95.7635 77.7695C95.4525 77.3171 95.2355 76.5852 95.2355 75.456H93.2355ZM94.1586 78.9607C94.743 79.6911 95.4808 80.2806 96.3925 80.3565L96.5585 78.3635C96.4462 78.3541 96.16 78.2609 95.7204 77.7113L94.1586 78.9607ZM96.2966 80.3439L97.0006 80.4719L97.3584 78.5041L96.6544 78.3761L96.2966 80.3439ZM97.1795 80.488H99.1635V78.488H97.1795V80.488ZM98.1635 79.488V80H100.164V79.488H98.1635ZM99.1635 79H97.1795V81H99.1635V79ZM80.7315 80.744C83.2427 80.744 85.4977 79.8832 87.4623 78.1993L86.1607 76.6807C84.5413 78.0688 82.743 78.744 80.7315 78.744V80.744ZM87.4637 78.198C89.3726 76.5555 90.5896 74.8205 90.7516 72.9839L88.7594 72.8081C88.6654 73.8728 87.9197 75.1672 86.1593 76.682L87.4637 78.198ZM90.7555 72.896V65.152H88.7555V72.896H90.7555ZM89.8294 64.1547C88.652 64.0675 87.454 64.024 86.2355 64.024V66.024C87.4064 66.024 88.555 66.0658 89.6816 66.1493L89.8294 64.1547ZM86.2355 64.024C85.0464 64.024 83.8575 64.0901 82.6691 64.2221L82.8899 66.2099C84.0055 66.0859 85.1206 66.024 86.2355 66.024V64.024ZM82.6619 64.2229C80.9992 64.4198 79.5849 64.7086 78.4387 65.1022C77.3029 65.4923 76.3556 66.0106 75.7076 66.7149L77.1794 68.0691C77.5127 67.7068 78.1121 67.329 79.0883 66.9938C80.0541 66.6621 81.3171 66.3962 82.8971 66.2091L82.6619 64.2229ZM75.7076 66.7149C74.511 68.0156 73.9715 69.7562 73.9715 71.808H75.9715C75.9715 70.1052 76.4133 68.9018 77.1794 68.0691L75.7076 66.7149ZM73.9715 71.808C73.9715 72.1897 73.9953 72.6077 74.0405 73.0595L76.0305 72.8605C75.9904 72.4589 75.9715 72.109 75.9715 71.808H73.9715ZM74.0391 73.0446C74.2398 75.4082 74.8459 77.3383 75.9817 78.691C77.1517 80.0846 78.7807 80.744 80.7315 80.744V78.744C79.2689 78.744 78.2419 78.2727 77.5133 77.405C76.7504 76.4964 76.2152 75.0344 76.0319 72.8754L74.0391 73.0446ZM114.909 49.408H115.909V47.931L114.538 48.4795L114.909 49.408ZM109.661 54.08L110.486 54.6452L110.491 54.6382L109.661 54.08ZM107.165 60.608L106.166 60.5664L106.165 60.5872V60.608H107.165ZM107.165 80V81H108.165V80H107.165ZM102.685 80H101.685V81H102.685V80ZM102.685 48V47H101.685V48H102.685ZM107.165 48H108.165V47H107.165V48ZM107.165 58.176H106.165L108.129 58.4419L107.165 58.176ZM111.069 51.2L111.819 51.8617L111.825 51.8544L111.069 51.2ZM117.597 47.744V46.744H117.579L117.562 46.7446L117.597 47.744ZM119.965 48.64L119.232 49.3204L119.257 49.3476L119.285 49.3728L119.965 48.64ZM119.965 52.864L119.285 52.1312L119.271 52.1438L119.258 52.1569L119.965 52.864ZM115.741 52.864L116.448 52.1569L116.448 52.1569L115.741 52.864ZM115.909 50.752V49.408H113.909V50.752H115.909ZM114.538 48.4795C112.374 49.345 110.482 51.0682 108.831 53.5218L110.491 54.6382C111.997 52.3985 113.604 51.007 115.28 50.3365L114.538 48.4795ZM108.836 53.5148C107.189 55.9193 106.261 58.2746 106.166 60.5664L108.164 60.6496C108.239 58.8454 108.976 56.8487 110.486 54.6452L108.836 53.5148ZM106.165 60.608V80H108.165V60.608H106.165ZM107.165 79H102.685V81H107.165V79ZM103.685 80V48H101.685V80H103.685ZM102.685 49H107.165V47H102.685V49ZM106.165 48V58.176H108.165V48H106.165ZM108.129 58.4419C108.766 56.1318 109.986 53.9387 111.819 51.8616L110.319 50.5384C108.312 52.8133 106.929 55.2709 106.201 57.9101L108.129 58.4419ZM111.825 51.8544C113.604 49.7992 115.534 48.817 117.632 48.7434L117.562 46.7446C114.796 46.8417 112.374 48.1635 110.313 50.5456L111.825 51.8544ZM117.597 48.744H117.853V46.744H117.597V48.744ZM117.853 48.744C118.443 48.744 118.877 48.9374 119.232 49.3204L120.698 47.9595C119.944 47.1479 118.97 46.744 117.853 46.744V48.744ZM119.285 49.3728C119.668 49.7285 119.861 50.1621 119.861 50.752H121.861C121.861 49.6353 121.457 48.6608 120.645 47.9072L119.285 49.3728ZM119.861 50.752C119.861 51.3419 119.668 51.7755 119.285 52.1312L120.645 53.5968C121.457 52.8431 121.861 51.8687 121.861 50.752H119.861ZM119.258 52.1569C118.908 52.5066 118.467 52.696 117.853 52.696V54.696C118.946 54.696 119.912 54.3307 120.672 53.5711L119.258 52.1569ZM117.853 52.696C117.239 52.696 116.798 52.5066 116.448 52.1569L115.034 53.5711C115.794 54.3307 116.76 54.696 117.853 54.696V52.696ZM116.448 52.1569C116.098 51.8072 115.909 51.3658 115.909 50.752H113.909C113.909 51.8449 114.274 52.8115 115.034 53.5711L116.448 52.1569ZM127.78 52.288L127.032 51.6243L127.78 52.288ZM147.492 49.664L147.044 50.5584L148.492 51.282V49.664H147.492ZM147.492 32.064V31.064H146.492V32.064H147.492ZM151.972 32.064H152.972V31.064H151.972V32.064ZM152.675 78.336L151.851 78.9025L151.872 78.9324L151.895 78.9607L152.675 78.336ZM154.212 79.36L154.39 78.3761L154.343 78.3675L154.295 78.3635L154.212 79.36ZM154.915 79.488L154.737 80.4719L154.825 80.488H154.915V79.488ZM156.9 79.488H157.9V78.488H156.9V79.488ZM156.9 80V81H157.9V80H156.9ZM148.964 78.848L148.313 79.6073L148.321 79.6147L148.33 79.622L148.964 78.848ZM147.556 76.544L148.554 76.4885L148.554 76.4853L147.556 76.544ZM147.492 75.456H146.492V75.4854L146.493 75.5147L147.492 75.456ZM147.492 74.432H148.492L146.613 73.9549L147.492 74.432ZM143.46 78.4L143.983 79.2523L143.46 78.4ZM136.803 80.128L136.779 81.1277L136.791 81.128H136.803V80.128ZM144.228 77.312L143.628 76.512L144.228 77.312ZM147.492 72.768L148.488 72.8534L148.492 72.8108V72.768H147.492ZM147.492 50.24H148.492V49.5855L147.892 49.3235L147.492 50.24ZM131.107 52.736L131.945 53.2823L131.949 53.2768L131.107 52.736ZM124.747 65.152C124.747 59.7591 126.053 55.7399 128.527 52.9517L127.032 51.6243C124.13 54.8947 122.747 59.4516 122.747 65.152H124.747ZM128.527 52.9517C130.969 50.2004 134.687 48.744 139.876 48.744V46.744C134.312 46.744 129.966 48.3169 127.032 51.6243L128.527 52.9517ZM139.876 48.744C142.218 48.744 144.604 49.3383 147.044 50.5584L147.939 48.7696C145.259 47.4297 142.568 46.744 139.876 46.744V48.744ZM148.492 49.664V32.064H146.492V49.664H148.492ZM147.492 33.064H151.972V31.064H147.492V33.064ZM150.972 32.064V75.456H152.972V32.064H150.972ZM150.972 75.456C150.972 76.8015 151.224 77.9895 151.851 78.9025L153.5 77.7695C153.189 77.3171 152.972 76.5852 152.972 75.456H150.972ZM151.895 78.9607C152.479 79.6911 153.217 80.2806 154.128 80.3565L154.295 78.3635C154.182 78.3541 153.896 78.2609 153.456 77.7113L151.895 78.9607ZM154.033 80.3439L154.737 80.4719L155.094 78.5041L154.39 78.3761L154.033 80.3439ZM154.915 80.488H156.9V78.488H154.915V80.488ZM155.9 79.488V80H157.9V79.488H155.9ZM156.9 79H152.995V81H156.9V79ZM152.995 79C151.377 79 150.292 78.6433 149.597 78.074L148.33 79.622C149.512 80.5887 151.115 81 152.995 81V79ZM149.614 78.0887C148.816 77.4047 148.575 76.8683 148.554 76.4885L146.557 76.5995C146.621 77.7557 147.319 78.7553 148.313 79.6073L149.614 78.0887ZM148.554 76.4853L148.49 75.3973L146.493 75.5147L146.557 76.6027L148.554 76.4853ZM148.492 75.456V74.432H146.492V75.456H148.492ZM146.613 73.9549C145.907 75.255 144.708 76.4609 142.936 77.5477L143.983 79.2523C145.966 78.0351 147.455 76.5957 148.37 74.9091L146.613 73.9549ZM142.936 77.5477C141.241 78.5883 139.209 79.128 136.803 79.128V81.128C139.518 81.128 141.924 80.5157 143.983 79.2523L142.936 77.5477ZM136.828 79.1283C132.663 79.0262 129.704 77.7903 127.765 75.5669C125.809 73.3226 124.747 69.9077 124.747 65.152H122.747C122.747 70.1669 123.862 74.1334 126.258 76.8811C128.671 79.6497 132.24 81.0164 136.779 81.1277L136.828 79.1283ZM136.868 80.616C139.916 80.616 142.586 79.7929 144.827 78.112L143.628 76.512C141.773 77.9031 139.536 78.616 136.868 78.616V80.616ZM144.827 78.112C146.95 76.5203 148.323 74.7777 148.488 72.8534L146.495 72.6826C146.404 73.745 145.601 75.0317 143.628 76.512L144.827 78.112ZM148.492 72.768V50.24H146.492V72.768H148.492ZM147.892 49.3235C144.795 47.9716 142.05 47.256 139.684 47.256V49.256C141.669 49.256 144.129 49.863 147.091 51.1565L147.892 49.3235ZM139.684 47.256C135.574 47.256 132.385 48.8993 130.266 52.1952L131.949 53.2768C133.67 50.5993 136.198 49.256 139.684 49.256V47.256ZM130.27 52.1897C128.202 55.36 127.228 59.7182 127.228 65.152H129.228C129.228 59.9191 130.173 56 131.945 53.2823L130.27 52.1897ZM127.228 65.152C127.228 70.0402 127.952 73.8722 129.529 76.5128C131.155 79.235 133.647 80.616 136.868 80.616V78.616C134.328 78.616 132.5 77.5863 131.246 75.4872C129.943 73.3064 129.228 69.9064 129.228 65.152H127.228ZM163.034 76.416L163.707 75.6761L163.034 76.416ZM163.162 52.16L162.455 51.4529L162.45 51.4581L163.162 52.16ZM185.306 51.584L185.979 50.8441L185.306 51.584ZM185.114 75.84L184.407 75.1329L184.402 75.1381L185.114 75.84ZM166.362 52.608L167.163 53.2061L167.168 53.2004L166.362 52.608ZM166.106 76.032L166.889 75.4106L166.106 76.032ZM181.978 75.456L182.779 76.0541L182.784 76.0484L181.978 75.456ZM173.978 79.256C169.7 79.256 166.307 78.0397 163.707 75.6761L162.361 77.1559C165.393 79.9123 169.296 81.256 173.978 81.256V79.256ZM163.707 75.6761C161.172 73.3719 159.81 69.7441 159.81 64.576H157.81C157.81 70.0746 159.264 74.3401 162.361 77.1559L163.707 75.6761ZM159.81 64.576C159.81 59.4258 161.206 55.5689 163.874 52.8619L162.45 51.4581C159.315 54.6391 157.81 59.0595 157.81 64.576H159.81ZM163.869 52.8671C166.61 50.1258 170.061 48.744 174.298 48.744V46.744C169.575 46.744 165.602 48.3062 162.455 51.4529L163.869 52.8671ZM174.298 48.744C178.621 48.744 182.035 49.9619 184.633 52.3239L185.979 50.8441C182.945 48.0861 179.02 46.744 174.298 46.744V48.744ZM184.633 52.3239C187.168 54.6281 188.53 58.2559 188.53 63.424H190.53C190.53 57.9254 189.076 53.6599 185.979 50.8441L184.633 52.3239ZM188.53 63.424C188.53 68.5702 187.115 72.4252 184.407 75.1329L185.821 76.5471C189.001 73.3668 190.53 68.9445 190.53 63.424H188.53ZM184.402 75.1381C181.707 77.8724 178.261 79.256 173.978 79.256V81.256C178.741 81.256 182.718 79.6956 185.826 76.5419L184.402 75.1381ZM174.426 47.256C170.827 47.256 167.854 48.8907 165.556 52.0156L167.168 53.2004C169.137 50.5226 171.54 49.256 174.426 49.256V47.256ZM165.561 52.0099C163.252 55.1033 162.162 59.3547 162.162 64.64H164.162C164.162 59.6 165.205 55.83 167.163 53.2061L165.561 52.0099ZM162.162 64.64C162.162 69.8557 163.156 73.9217 165.323 76.6534L166.889 75.4106C165.131 73.193 164.162 69.6643 164.162 64.64H162.162ZM165.323 76.6534C167.481 79.3746 170.376 80.744 173.914 80.744V78.744C170.967 78.744 168.657 77.6388 166.889 75.4106L165.323 76.6534ZM173.914 80.744C177.507 80.744 180.479 79.1365 182.779 76.0541L181.177 74.8579C179.21 77.4929 176.806 78.744 173.914 78.744V80.744ZM182.784 76.0484C185.087 72.9165 186.178 68.6701 186.178 63.424H184.178C184.178 68.4179 183.136 72.1929 181.172 74.8636L182.784 76.0484ZM186.178 63.424C186.178 58.168 185.185 54.0794 183.018 51.3466L181.451 52.5894C183.208 54.8059 184.178 58.3547 184.178 63.424H186.178ZM183.018 51.3466C180.859 48.6254 177.964 47.256 174.426 47.256V49.256C177.373 49.256 179.683 50.3612 181.451 52.5894L183.018 51.3466ZM215.9 78.848L215.25 79.6073L215.258 79.6147L215.267 79.622L215.9 78.848ZM214.492 76.544L215.491 76.4885L215.491 76.4853L214.492 76.544ZM214.428 75.456H213.428V75.4854L213.43 75.5147L214.428 75.456ZM211.805 48.896L212.277 48.0148L212.256 48.0035L212.234 47.9931L211.805 48.896ZM201.117 51.52L201.817 52.2341L201.824 52.2271L201.117 51.52ZM197.852 80V81H198.852V80H197.852ZM193.372 80H192.372V81H193.372V80ZM193.372 48V47H192.372V48H193.372ZM197.852 48H198.852V47H197.852V48ZM197.852 55.296H196.852L198.782 55.6637L197.852 55.296ZM201.885 50.176L202.511 50.9553L202.521 50.947L201.885 50.176ZM214.044 48.448L213.737 49.3994L213.753 49.4048L213.77 49.4095L214.044 48.448ZM217.309 50.304L218.087 49.6762L218.08 49.668L218.073 49.6599L217.309 50.304ZM219.613 78.336L218.788 78.9025L218.809 78.9324L218.832 78.9607L219.613 78.336ZM221.148 79.36L221.327 78.3761L221.28 78.3675L221.232 78.3635L221.148 79.36ZM221.853 79.488L221.674 80.4719L221.762 80.488H221.853V79.488ZM223.837 79.488H224.837V78.488H223.837V79.488ZM223.837 80V81H224.837V80H223.837ZM219.932 79C218.314 79 217.229 78.6433 216.534 78.074L215.267 79.622C216.449 80.5887 218.052 81 219.932 81V79ZM216.551 78.0887C215.753 77.4047 215.512 76.8683 215.491 76.4885L213.494 76.5995C213.558 77.7557 214.256 78.7553 215.25 79.6073L216.551 78.0887ZM215.491 76.4853L215.427 75.3973L213.43 75.5147L213.494 76.6027L215.491 76.4853ZM215.428 75.456V55.36H213.428V75.456H215.428ZM215.428 55.36C215.428 51.8891 214.534 49.2256 212.277 48.0148L211.332 49.7772C212.574 50.4437 213.428 52.0896 213.428 55.36H215.428ZM212.234 47.9931C211.167 47.4849 209.901 47.256 208.477 47.256V49.256C209.698 49.256 210.65 49.4537 211.375 49.7989L212.234 47.9931ZM208.477 47.256C205.446 47.256 202.747 48.4753 200.409 50.8129L201.824 52.2271C203.838 50.2127 206.046 49.256 208.477 49.256V47.256ZM200.416 50.8059C198.187 52.9915 196.852 55.1585 196.852 57.28H198.852C198.852 55.9882 199.694 54.3152 201.817 52.2341L200.416 50.8059ZM196.852 57.28V80H198.852V57.28H196.852ZM197.852 79H193.372V81H197.852V79ZM194.372 80V48H192.372V80H194.372ZM193.372 49H197.852V47H193.372V49ZM196.852 48V55.296H198.852V48H196.852ZM198.782 55.6637C199.429 54.0288 200.647 52.4547 202.511 50.9552L201.258 49.3968C199.197 51.0546 197.727 52.8938 196.923 54.9283L198.782 55.6637ZM202.521 50.947C204.321 49.4602 206.255 48.744 208.348 48.744V46.744C205.749 46.744 203.373 47.6491 201.248 49.405L202.521 50.947ZM208.348 48.744C210.641 48.744 212.424 48.9747 213.737 49.3994L214.352 47.4966C212.764 46.9826 210.75 46.744 208.348 46.744V48.744ZM213.77 49.4095C215.156 49.8056 216.036 50.3452 216.544 50.9481L218.073 49.6599C217.216 48.6414 215.919 47.9437 214.319 47.4865L213.77 49.4095ZM216.53 50.9318C217.423 52.0386 217.909 53.5076 217.909 55.424H219.909C219.909 53.1591 219.328 51.2148 218.087 49.6762L216.53 50.9318ZM217.909 55.424V75.456H219.909V55.424H217.909ZM217.909 75.456C217.909 76.8015 218.161 77.9895 218.788 78.9025L220.437 77.7695C220.126 77.3171 219.909 76.5852 219.909 75.456H217.909ZM218.832 78.9607C219.416 79.6911 220.154 80.2806 221.065 80.3565L221.232 78.3635C221.119 78.3541 220.833 78.2609 220.393 77.7113L218.832 78.9607ZM220.97 80.3439L221.674 80.4719L222.031 78.5041L221.327 78.3761L220.97 80.3439ZM221.853 80.488H223.837V78.488H221.853V80.488ZM222.837 79.488V80H224.837V79.488H222.837ZM223.837 79H219.932V81H223.837V79Z" fill="#F8F9FA"/>
</g>
<path d="M687.441 305.626H680.228C677.982 305.626 676.319 306.253 675.326 308.456L661.461 339.9H671.266C671.266 339.9 672.885 335.667 673.231 334.76H685.195C685.476 335.969 686.318 339.9 686.318 339.9H695L687.441 305.626ZM675.931 327.741C676.708 325.776 679.623 318.152 679.623 318.152C679.623 318.131 680.423 316.144 680.876 314.891L681.502 317.85C681.502 317.85 683.295 326.013 683.662 327.763H675.931V327.741Z" fill="white"/>
<path d="M649 315.129C648.978 316.748 650.987 317.807 654.269 319.383C659.647 321.845 662.152 324.782 662.109 328.713C662.044 335.818 655.673 340.418 645.825 340.418C641.636 340.375 637.597 339.532 635.416 338.582L636.733 330.894L637.943 331.455C640.988 332.73 642.996 333.248 646.732 333.248C649.41 333.248 652.283 332.19 652.304 329.9C652.326 328.389 651.095 327.309 647.467 325.624C643.903 323.983 639.217 321.24 639.26 316.316C639.303 309.665 645.825 305 655.047 305C658.675 305 661.591 305.756 663.426 306.447L662.152 313.876L661.31 313.487C659.582 312.796 657.358 312.127 654.313 312.17C650.706 312.17 649 313.703 649 315.129Z" fill="white"/>
<path d="M635.416 305.605L629.563 339.878H620.234L626.065 305.605H635.416Z" fill="white"/>
<path d="M601.855 323.249C598.746 315.323 591.295 308.736 580 305.993L580.13 305.302H594.621C596.586 305.367 598.162 305.993 598.702 308.088L601.855 323.249Z" fill="white"/>
<path d="M622.307 305.626L607.578 339.856H597.709L589.351 311.285C595.355 315.129 600.473 321.24 602.287 325.495L603.281 329.037L612.438 305.648H622.307V305.626Z" fill="white"/>
<path d="M41.816 324.784C42.952 322.608 44.8 321.52 47.36 321.52L47.264 322H47.048C45.528 322 44.28 322.472 43.304 323.416C42.328 324.344 41.656 325.712 41.288 327.52L39.992 334H39.512L41.984 321.592H42.464L41.816 324.784ZM54.6599 321.52C56.2439 321.52 57.4839 321.968 58.3799 322.864C59.2759 323.76 59.7239 324.992 59.7239 326.56L59.6999 327.064L48.4919 329.2C48.5399 330.624 48.9959 331.72 49.8599 332.488C50.7239 333.24 51.9479 333.616 53.5319 333.616C54.4599 333.616 55.3159 333.456 56.0999 333.136C56.8839 332.8 57.5319 332.344 58.0439 331.768L58.3319 332.08C57.8199 332.688 57.1319 333.176 56.2679 333.544C55.4199 333.896 54.4999 334.072 53.5079 334.072C51.7799 334.072 50.4359 333.632 49.4759 332.752C48.5159 331.856 48.0359 330.592 48.0359 328.96C48.0359 327.568 48.3239 326.304 48.8999 325.168C49.4759 324.032 50.2679 323.144 51.2759 322.504C52.2839 321.848 53.4119 321.52 54.6599 321.52ZM54.6599 321.976C53.5239 321.976 52.4919 322.272 51.5639 322.864C50.6359 323.44 49.8999 324.248 49.3559 325.288C48.8119 326.312 48.5239 327.472 48.4919 328.768L59.2919 326.704C59.3399 325.264 58.9479 324.12 58.1159 323.272C57.2839 322.408 56.1319 321.976 54.6599 321.976ZM75.3944 333.616C75.9064 333.616 76.3384 333.536 76.6904 333.376L76.6664 333.832C76.5064 333.896 76.2984 333.952 76.0424 334C75.8024 334.048 75.5784 334.072 75.3704 334.072C74.6184 334.072 74.0344 333.872 73.6184 333.472C73.2184 333.072 73.0184 332.528 73.0184 331.84C73.0184 331.536 73.0504 331.248 73.1144 330.976L73.1384 330.856C72.5464 331.864 71.7464 332.656 70.7384 333.232C69.7304 333.792 68.6024 334.072 67.3544 334.072C65.7384 334.072 64.4504 333.624 63.4904 332.728C62.5464 331.816 62.0744 330.584 62.0744 329.032C62.0744 327.608 62.3704 326.328 62.9624 325.192C63.5704 324.056 64.4024 323.16 65.4584 322.504C66.5304 321.848 67.7384 321.52 69.0824 321.52C70.5384 321.52 71.7064 321.872 72.5864 322.576C73.4664 323.264 74.0024 324.248 74.1944 325.528L76.0664 316.192H76.5464L73.6184 330.832C73.5544 331.136 73.5224 331.448 73.5224 331.768C73.5224 333 74.1464 333.616 75.3944 333.616ZM67.4264 333.616C68.6424 333.616 69.7384 333.312 70.7144 332.704C71.7064 332.096 72.4824 331.256 73.0424 330.184C73.6024 329.112 73.8824 327.912 73.8824 326.584C73.8824 325.128 73.4504 324 72.5864 323.2C71.7384 322.384 70.5464 321.976 69.0104 321.976C67.7944 321.976 66.6904 322.28 65.6984 322.888C64.7224 323.496 63.9544 324.336 63.3944 325.408C62.8344 326.48 62.5544 327.68 62.5544 329.008C62.5544 330.464 62.9784 331.6 63.8264 332.416C64.6904 333.216 65.8904 333.616 67.4264 333.616ZM85.3865 321.52C86.9705 321.52 88.2105 321.968 89.1065 322.864C90.0025 323.76 90.4505 324.992 90.4505 326.56L90.4265 327.064L79.2185 329.2C79.2665 330.624 79.7225 331.72 80.5865 332.488C81.4505 333.24 82.6745 333.616 84.2585 333.616C85.1865 333.616 86.0425 333.456 86.8265 333.136C87.6105 332.8 88.2585 332.344 88.7705 331.768L89.0585 332.08C88.5465 332.688 87.8585 333.176 86.9945 333.544C86.1465 333.896 85.2265 334.072 84.2345 334.072C82.5065 334.072 81.1625 333.632 80.2025 332.752C79.2425 331.856 78.7625 330.592 78.7625 328.96C78.7625 327.568 79.0505 326.304 79.6265 325.168C80.2025 324.032 80.9945 323.144 82.0025 322.504C83.0105 321.848 84.1385 321.52 85.3865 321.52ZM85.3865 321.976C84.2505 321.976 83.2185 322.272 82.2905 322.864C81.3625 323.44 80.6265 324.248 80.0825 325.288C79.5385 326.312 79.2505 327.472 79.2185 328.768L90.0185 326.704C90.0665 325.264 89.6745 324.12 88.8425 323.272C88.0105 322.408 86.8585 321.976 85.3865 321.976ZM99.617 316.12C100.081 316.12 100.513 316.2 100.913 316.36C101.329 316.504 101.657 316.72 101.897 317.008L101.561 317.32C101.097 316.824 100.441 316.576 99.593 316.576C98.729 316.576 98.049 316.8 97.553 317.248C97.057 317.696 96.713 318.408 96.521 319.384L96.089 321.592H100.265L100.193 322.048H95.993L93.593 334H93.113L96.065 319.24C96.273 318.216 96.673 317.44 97.265 316.912C97.873 316.384 98.657 316.12 99.617 316.12ZM104.801 321.592H105.281L102.809 334H102.329L104.801 321.592ZM105.809 318.16C105.649 318.16 105.513 318.104 105.401 317.992C105.289 317.88 105.233 317.744 105.233 317.584C105.233 317.408 105.297 317.256 105.425 317.128C105.569 316.984 105.729 316.912 105.905 316.912C106.065 316.912 106.201 316.968 106.313 317.08C106.425 317.192 106.481 317.328 106.481 317.488C106.481 317.664 106.409 317.824 106.265 317.968C106.137 318.096 105.985 318.16 105.809 318.16ZM116.245 321.52C117.669 321.52 118.749 321.864 119.484 322.552C120.22 323.24 120.589 324.176 120.589 325.36C120.589 325.776 120.541 326.216 120.445 326.68L118.981 334H118.501L119.965 326.68C120.061 326.216 120.109 325.792 120.109 325.408C120.109 324.32 119.773 323.48 119.101 322.888C118.445 322.28 117.477 321.976 116.197 321.976C114.613 321.976 113.293 322.416 112.237 323.296C111.197 324.176 110.509 325.448 110.173 327.112L108.805 334H108.325L110.797 321.592H111.277L110.677 324.616C111.845 322.552 113.701 321.52 116.245 321.52ZM126.828 321.592H127.308L124.836 334H124.356L126.828 321.592ZM127.836 318.16C127.676 318.16 127.54 318.104 127.428 317.992C127.316 317.88 127.26 317.744 127.26 317.584C127.26 317.408 127.324 317.256 127.452 317.128C127.596 316.984 127.756 316.912 127.932 316.912C128.092 316.912 128.228 316.968 128.34 317.08C128.452 317.192 128.508 317.328 128.508 317.488C128.508 317.664 128.436 317.824 128.292 317.968C128.164 318.096 128.012 318.16 127.836 318.16ZM138.276 321.52C139.7 321.52 140.78 321.864 141.516 322.552C142.252 323.24 142.62 324.176 142.62 325.36C142.62 325.776 142.572 326.216 142.476 326.68L141.012 334H140.532L141.996 326.68C142.092 326.216 142.14 325.792 142.14 325.408C142.14 324.32 141.804 323.48 141.132 322.888C140.476 322.28 139.508 321.976 138.228 321.976C136.644 321.976 135.324 322.416 134.268 323.296C133.228 324.176 132.54 325.448 132.204 327.112L130.836 334H130.356L132.828 321.592H133.308L132.708 324.616C133.876 322.552 135.732 321.52 138.276 321.52ZM159.635 321.592L157.379 332.896C156.979 334.944 156.235 336.424 155.147 337.336C154.059 338.264 152.531 338.728 150.563 338.728C149.443 338.728 148.435 338.544 147.539 338.176C146.643 337.824 145.923 337.32 145.379 336.664L145.811 336.328C146.307 336.968 146.963 337.448 147.779 337.768C148.611 338.104 149.547 338.272 150.587 338.272C152.379 338.272 153.787 337.84 154.811 336.976C155.851 336.128 156.547 334.792 156.899 332.968L157.451 330.208C156.843 331.264 156.019 332.096 154.979 332.704C153.939 333.296 152.763 333.592 151.451 333.592C149.803 333.592 148.499 333.16 147.539 332.296C146.579 331.432 146.099 330.248 146.099 328.744C146.099 327.384 146.403 326.152 147.011 325.048C147.619 323.944 148.459 323.08 149.531 322.456C150.603 321.832 151.811 321.52 153.155 321.52C154.659 321.52 155.859 321.88 156.755 322.6C157.667 323.32 158.203 324.328 158.363 325.624L159.155 321.592H159.635ZM151.499 333.136C152.731 333.136 153.843 332.848 154.835 332.272C155.843 331.68 156.627 330.872 157.187 329.848C157.747 328.824 158.027 327.672 158.027 326.392C158.027 324.984 157.595 323.896 156.731 323.128C155.867 322.36 154.659 321.976 153.107 321.976C151.875 321.976 150.755 322.272 149.747 322.864C148.755 323.44 147.979 324.24 147.419 325.264C146.859 326.288 146.579 327.44 146.579 328.72C146.579 330.128 147.011 331.216 147.875 331.984C148.739 332.752 149.947 333.136 151.499 333.136Z" fill="#8C8D8D"/>
<path d="M174.941 321.52C176.525 321.52 177.765 321.968 178.661 322.864C179.557 323.76 180.005 324.992 180.005 326.56L179.981 327.064L168.773 329.2C168.821 330.624 169.277 331.72 170.141 332.488C171.005 333.24 172.229 333.616 173.813 333.616C174.741 333.616 175.597 333.456 176.381 333.136C177.165 332.8 177.813 332.344 178.325 331.768L178.613 332.08C178.101 332.688 177.413 333.176 176.549 333.544C175.701 333.896 174.781 334.072 173.789 334.072C172.061 334.072 170.717 333.632 169.757 332.752C168.797 331.856 168.317 330.592 168.317 328.96C168.317 327.568 168.605 326.304 169.181 325.168C169.757 324.032 170.549 323.144 171.557 322.504C172.565 321.848 173.693 321.52 174.941 321.52ZM174.941 321.976C173.805 321.976 172.773 322.272 171.845 322.864C170.917 323.44 170.181 324.248 169.637 325.288C169.093 326.312 168.805 327.472 168.773 328.768L179.573 326.704C179.621 325.264 179.229 324.12 178.397 323.272C177.565 322.408 176.413 321.976 174.941 321.976ZM187.092 327.64L190.86 334H190.284L186.78 327.976L180.9 334H180.252L186.54 327.592L183.012 321.592H183.564L186.876 327.232L192.348 321.592H192.972L187.092 327.64ZM198.889 334.072C197.209 334.072 195.889 333.624 194.929 332.728C193.969 331.816 193.489 330.584 193.489 329.032C193.489 327.608 193.785 326.328 194.377 325.192C194.985 324.04 195.825 323.144 196.897 322.504C197.969 321.848 199.177 321.52 200.521 321.52C201.561 321.52 202.457 321.696 203.209 322.048C203.977 322.4 204.561 322.92 204.961 323.608L204.601 323.896C203.769 322.616 202.401 321.976 200.497 321.976C199.249 321.976 198.129 322.28 197.137 322.888C196.145 323.496 195.369 324.336 194.809 325.408C194.249 326.48 193.969 327.68 193.969 329.008C193.969 330.48 194.401 331.616 195.265 332.416C196.129 333.216 197.361 333.616 198.961 333.616C199.841 333.616 200.665 333.456 201.433 333.136C202.217 332.8 202.857 332.336 203.353 331.744L203.641 332.08C203.129 332.704 202.449 333.192 201.601 333.544C200.769 333.896 199.865 334.072 198.889 334.072ZM212.98 321.52C214.564 321.52 215.804 321.968 216.7 322.864C217.596 323.76 218.044 324.992 218.044 326.56L218.02 327.064L206.812 329.2C206.86 330.624 207.316 331.72 208.18 332.488C209.044 333.24 210.268 333.616 211.852 333.616C212.78 333.616 213.636 333.456 214.42 333.136C215.204 332.8 215.852 332.344 216.364 331.768L216.652 332.08C216.14 332.688 215.452 333.176 214.588 333.544C213.74 333.896 212.82 334.072 211.828 334.072C210.1 334.072 208.756 333.632 207.796 332.752C206.836 331.856 206.356 330.592 206.356 328.96C206.356 327.568 206.644 326.304 207.22 325.168C207.796 324.032 208.588 323.144 209.596 322.504C210.604 321.848 211.732 321.52 212.98 321.52ZM212.98 321.976C211.844 321.976 210.812 322.272 209.884 322.864C208.956 323.44 208.22 324.248 207.676 325.288C207.132 326.312 206.844 327.472 206.812 328.768L217.612 326.704C217.66 325.264 217.268 324.12 216.436 323.272C215.604 322.408 214.452 321.976 212.98 321.976ZM223.587 334.072C222.835 334.072 222.251 333.872 221.835 333.472C221.435 333.072 221.235 332.528 221.235 331.84C221.235 331.536 221.267 331.248 221.331 330.976L224.283 316.192H224.763L221.835 330.832C221.771 331.136 221.739 331.448 221.739 331.768C221.739 333 222.363 333.616 223.611 333.616C224.123 333.616 224.555 333.536 224.907 333.376L224.883 333.832C224.723 333.896 224.515 333.952 224.259 334C224.019 334.048 223.795 334.072 223.587 334.072ZM230.384 334.072C229.632 334.072 229.048 333.872 228.632 333.472C228.232 333.072 228.032 332.528 228.032 331.84C228.032 331.536 228.064 331.248 228.128 330.976L231.08 316.192H231.56L228.632 330.832C228.568 331.136 228.536 331.448 228.536 331.768C228.536 333 229.16 333.616 230.408 333.616C230.92 333.616 231.352 333.536 231.704 333.376L231.68 333.832C231.52 333.896 231.312 333.952 231.056 334C230.816 334.048 230.592 334.072 230.384 334.072ZM240.402 321.52C241.986 321.52 243.226 321.968 244.122 322.864C245.018 323.76 245.466 324.992 245.466 326.56L245.442 327.064L234.234 329.2C234.282 330.624 234.738 331.72 235.602 332.488C236.466 333.24 237.69 333.616 239.274 333.616C240.202 333.616 241.058 333.456 241.842 333.136C242.626 332.8 243.274 332.344 243.786 331.768L244.074 332.08C243.562 332.688 242.874 333.176 242.01 333.544C241.162 333.896 240.242 334.072 239.25 334.072C237.522 334.072 236.178 333.632 235.218 332.752C234.258 331.856 233.778 330.592 233.778 328.96C233.778 327.568 234.066 326.304 234.642 325.168C235.218 324.032 236.01 323.144 237.018 322.504C238.026 321.848 239.154 321.52 240.402 321.52ZM240.402 321.976C239.266 321.976 238.234 322.272 237.306 322.864C236.378 323.44 235.642 324.248 235.098 325.288C234.554 326.312 234.266 327.472 234.234 328.768L245.034 326.704C245.082 325.264 244.69 324.12 243.858 323.272C243.026 322.408 241.874 321.976 240.402 321.976ZM256.073 321.52C257.497 321.52 258.577 321.864 259.313 322.552C260.049 323.24 260.417 324.176 260.417 325.36C260.417 325.776 260.369 326.216 260.273 326.68L258.809 334H258.329L259.793 326.68C259.889 326.216 259.937 325.792 259.937 325.408C259.937 324.32 259.601 323.48 258.929 322.888C258.273 322.28 257.305 321.976 256.025 321.976C254.441 321.976 253.121 322.416 252.065 323.296C251.025 324.176 250.337 325.448 250.001 327.112L248.633 334H248.153L250.625 321.592H251.105L250.505 324.616C251.673 322.552 253.529 321.52 256.073 321.52ZM269.248 334.072C267.568 334.072 266.248 333.624 265.288 332.728C264.328 331.816 263.848 330.584 263.848 329.032C263.848 327.608 264.144 326.328 264.736 325.192C265.344 324.04 266.184 323.144 267.256 322.504C268.328 321.848 269.536 321.52 270.88 321.52C271.92 321.52 272.816 321.696 273.568 322.048C274.336 322.4 274.92 322.92 275.32 323.608L274.96 323.896C274.128 322.616 272.76 321.976 270.856 321.976C269.608 321.976 268.488 322.28 267.496 322.888C266.504 323.496 265.728 324.336 265.168 325.408C264.608 326.48 264.328 327.68 264.328 329.008C264.328 330.48 264.76 331.616 265.624 332.416C266.488 333.216 267.72 333.616 269.32 333.616C270.2 333.616 271.024 333.456 271.792 333.136C272.576 332.8 273.216 332.336 273.712 331.744L274 332.08C273.488 332.704 272.808 333.192 271.96 333.544C271.128 333.896 270.224 334.072 269.248 334.072ZM283.34 321.52C284.924 321.52 286.164 321.968 287.06 322.864C287.956 323.76 288.404 324.992 288.404 326.56L288.38 327.064L277.172 329.2C277.22 330.624 277.676 331.72 278.54 332.488C279.404 333.24 280.628 333.616 282.212 333.616C283.14 333.616 283.996 333.456 284.78 333.136C285.564 332.8 286.212 332.344 286.724 331.768L287.012 332.08C286.5 332.688 285.812 333.176 284.948 333.544C284.1 333.896 283.18 334.072 282.188 334.072C280.46 334.072 279.116 333.632 278.156 332.752C277.196 331.856 276.716 330.592 276.716 328.96C276.716 327.568 277.004 326.304 277.58 325.168C278.156 324.032 278.948 323.144 279.956 322.504C280.964 321.848 282.092 321.52 283.34 321.52ZM283.34 321.976C282.204 321.976 281.172 322.272 280.244 322.864C279.316 323.44 278.58 324.248 278.036 325.288C277.492 326.312 277.204 327.472 277.172 328.768L287.972 326.704C288.02 325.264 287.628 324.12 286.796 323.272C285.964 322.408 284.812 321.976 283.34 321.976Z" fill="#F8F9FA"/>
<g filter="url(#filter2_d_3_2)">
<path d="M140.347 131.638C147.54 140.955 147.54 153.066 140.347 162.383" stroke="#B6B6B6" stroke-width="1.5" stroke-linecap="round" stroke-linejoin="round"/>
<path d="M147.887 125.333C158.027 138.463 158.027 155.537 147.887 168.667" stroke="#B6B6B6" stroke-width="1.5" stroke-linecap="round" stroke-linejoin="round"/>
<path d="M132.438 135.712C137.725 142.537 137.725 151.442 132.438 158.267" stroke="#B6B6B6" stroke-width="1.5" stroke-linecap="round" stroke-linejoin="round"/>
<path d="M124.508 141.367C127.152 144.79 127.152 149.232 124.508 152.655" stroke="#B6B6B6" stroke-width="1.5" stroke-linecap="round" stroke-linejoin="round"/>
</g>
<defs>
<filter id="filter0_d_3_2" x="0" y="0" width="740" height="390" filterUnits="userSpaceOnUse" color-interpolation-filters="sRGB">
<feFlood flood-opacity="0" result="BackgroundImageFix"/>
<feColorMatrix in="SourceAlpha" type="matrix" values="0 0 0 0 0 0 0 0 0 0 0 0 0 0 0 0 0 0 127 0" result="hardAlpha"/>
<feMorphology radius="12" operator="erode" in="SourceAlpha" result="effect1_dropShadow_3_2"/>
<feOffset dx="4" dy="10"/>
<feGaussianBlur stdDeviation="15"/>
<feComposite in2="hardAlpha" operator="out"/>
<feColorMatrix type="matrix" values="0 0 0 0 0.972549 0 0 0 0 0.976471 0 0 0 0 0.980392 0 0 0 0.25 0"/>
<feBlend mode="normal" in2="BackgroundImageFix" result="effect1_dropShadow_3_2"/>
<feBlend mode="normal" in="SourceGraphic" in2="effect1_dropShadow_3_2" result="shape"/>
</filter>
<filter id="filter1_d_3_2" x="35.56" y="32.064" width="193.277" height="62.192" filterUnits="userSpaceOnUse" color-interpolation-filters="sRGB">
<feFlood flood-opacity="0" result="BackgroundImageFix"/>
<feColorMatrix in="SourceAlpha" type="matrix" values="0 0 0 0 0 0 0 0 0 0 0 0 0 0 0 0 0 0 127 0" result="hardAlpha"/>
<feOffset dy="9"/>
<feGaussianBlur stdDeviation="2.5"/>
<feComposite in2="hardAlpha" operator="out"/>
<feColorMatrix type="matrix" values="0 0 0 0 0 0 0 0 0 0 0 0 0 0 0 0 0 0 0.25 0"/>
<feBlend mode="normal" in2="BackgroundImageFix" result="effect1_dropShadow_3_2"/>
<feBlend mode="normal" in="SourceGraphic" in2="effect1_dropShadow_3_2" result="shape"/>
</filter>
<filter id="filter2_d_3_2" x="110" y="121" width="60" height="60" filterUnits="userSpaceOnUse" color-interpolation-filters="sRGB">
<feFlood flood-opacity="0" result="BackgroundImageFix"/>
<feColorMatrix in="SourceAlpha" type="matrix" values="0 0 0 0 0 0 0 0 0 0 0 0 0 0 0 0 0 0 127 0" result="hardAlpha"/>
<feOffset dy="4"/>
<feGaussianBlur stdDeviation="2"/>
<feComposite in2="hardAlpha" operator="out"/>
<feColorMatrix type="matrix" values="0 0 0 0 0 0 0 0 0 0 0 0 0 0 0 0 0 0 0.25 0"/>
<feBlend mode="normal" in2="BackgroundImageFix" result="effect1_dropShadow_3_2"/>
<feBlend mode="normal" in="SourceGraphic" in2="effect1_dropShadow_3_2" result="shape"/>
</filter>
<linearGradient id="paint0_linear_3_2" x1="595" y1="54" x2="65.5" y2="340.5" gradientUnits="userSpaceOnUse">
<stop offset="0.247564"/>
<stop offset="0.760359" stop-color="#101010"/>
</linearGradient>
</defs>
</svg>
